<svg width="920" height="620" viewBox="0 0 920 620" fill="none" xmlns="http://www.w3.org/2000/svg">
  <defs>
    <linearGradient id="bg" x1="80" y1="40" x2="860" y2="590" gradientUnits="userSpaceOnUse">
      <stop stop-color="#0A0A0A"/>
      <stop offset="1" stop-color="#111111"/>
    </linearGradient>
    <linearGradient id="house" x1="300" y1="188" x2="620" y2="470" gradientUnits="userSpaceOnUse">
      <stop stop-color="#FFFFFF" stop-opacity="0.06"/>
      <stop offset="1" stop-color="#FFFFFF" stop-opacity="0.03"/>
    </linearGradient>
    <linearGradient id="accent" x1="0" y1="0" x2="0" y2="1">
      <stop stop-color="#FFFFFF"/>
      <stop offset="1" stop-color="#FFFFFF" stop-opacity="0.4"/>
    </linearGradient>
    <filter id="soft" x="186" y="96" width="548" height="458" filterUnits="userSpaceOnUse" color-interpolation-filters="sRGB">
      <feFlood flood-opacity="0" result="BackgroundImageFix"/>
      <feColorMatrix in="SourceAlpha" type="matrix" values="0 0 0 0 0 0 0 0 0 0 0 0 0 0 0 0 0 0 127 0" result="hardAlpha"/>
      <feOffset dy="14"/>
      <feGaussianBlur stdDeviation="22"/>
      <feComposite in2="hardAlpha" operator="out"/>
      <feColorMatrix type="matrix" values="0 0 0 0 1 0 0 0 0 1 0 0 0 0 1 0 0 0 0.08 0"/>
      <feBlend mode="normal" in2="BackgroundImageFix" result="effect1_dropShadow_1_1"/>
      <feBlend mode="normal" in="SourceGraphic" in2="effect1_dropShadow_1_1" result="shape"/>
    </filter>
  </defs>

  <rect x="0" y="0" width="920" height="620" rx="28" fill="url(#bg)"/>

  <path d="M208 502H712" stroke="#FFFFFF" stroke-width="2" stroke-linecap="round" stroke-dasharray="8 10" opacity="0.2"/>
  <circle cx="226" cy="502" r="6" fill="#FFFFFF" fill-opacity="0.5"/>
  <circle cx="694" cy="502" r="6" fill="#FFFFFF" fill-opacity="0.5"/>

  <g filter="url(#soft)">
    <path d="M460 142L680 306V496H240V306L460 142Z" fill="url(#house)" stroke="#FFFFFF" stroke-width="2" opacity="0.4"/>
    <path d="M460 192L626 316V466H294V316L460 192Z" fill="#FFFFFF" fill-opacity="0.03" stroke="#FFFFFF" stroke-width="1.5" opacity="0.25"/>
  </g>

  <rect x="424" y="378" width="72" height="118" rx="12" fill="#FFFFFF" fill-opacity="0.04" stroke="#FFFFFF" stroke-width="1.5" opacity="0.5"/>
  <rect x="344" y="344" width="62" height="52" rx="10" fill="#FFFFFF" fill-opacity="0.04" stroke="#FFFFFF" stroke-width="1.5" opacity="0.5"/>
  <rect x="514" y="344" width="62" height="52" rx="10" fill="#FFFFFF" fill-opacity="0.04" stroke="#FFFFFF" stroke-width="1.5" opacity="0.5"/>

  <path d="M460 270V332" stroke="url(#accent)" stroke-width="3" stroke-linecap="round"/>
  <circle cx="460" cy="256" r="12" fill="#1A1A1A" stroke="#FFFFFF" stroke-width="2" opacity="0.8"/>
  <circle cx="460" cy="256" r="4" fill="#FFFFFF" opacity="0.9"/>

  <path d="M460 332H378V344" stroke="#FFFFFF" stroke-width="2" stroke-linecap="round" opacity="0.6"/>
  <path d="M460 332H544V344" stroke="#FFFFFF" stroke-width="2" stroke-linecap="round" opacity="0.6"/>
  <path d="M460 332V378" stroke="#FFFFFF" stroke-width="2" stroke-linecap="round" opacity="0.6"/>

  <circle cx="378" cy="344" r="7" fill="#1A1A1A" stroke="#FFFFFF" stroke-width="1.5" opacity="0.7"/>
  <circle cx="544" cy="344" r="7" fill="#1A1A1A" stroke="#FFFFFF" stroke-width="1.5" opacity="0.7"/>
  <circle cx="460" cy="378" r="7" fill="#1A1A1A" stroke="#FFFFFF" stroke-width="1.5" opacity="0.7"/>

  <path d="M324 316L292 286H256" stroke="#FFFFFF" stroke-width="2" stroke-linecap="round" opacity="0.4"/>
  <circle cx="244" cy="286" r="8" fill="#1A1A1A" stroke="#FFFFFF" stroke-width="1.5" opacity="0.6"/>

  <path d="M596 316L628 286H664" stroke="#FFFFFF" stroke-width="2" stroke-linecap="round" opacity="0.4"/>
  <circle cx="676" cy="286" r="8" fill="#1A1A1A" stroke="#FFFFFF" stroke-width="1.5" opacity="0.6"/>

  <path d="M460 216V174" stroke="#FFFFFF" stroke-width="2" stroke-linecap="round" opacity="0.4"/>
  <circle cx="460" cy="162" r="8" fill="#1A1A1A" stroke="#FFFFFF" stroke-width="1.5" opacity="0.6"/>

  <rect x="118" y="124" width="184" height="80" rx="16" fill="#FFFFFF" fill-opacity="0.04" stroke="#FFFFFF" stroke-opacity="0.15"/>
  <rect x="138" y="146" width="92" height="8" rx="4" fill="#FFFFFF" opacity="0.7"/>
  <rect x="138" y="162" width="136" height="6" rx="3" fill="#FFFFFF" opacity="0.3"/>
  <rect x="138" y="175" width="114" height="6" rx="3" fill="#FFFFFF" opacity="0.2"/>
  <path d="M302 164H338L368 196" stroke="#FFFFFF" stroke-width="2" stroke-linecap="round" opacity="0.4"/>

  <rect x="618" y="86" width="184" height="80" rx="16" fill="#FFFFFF" fill-opacity="0.04" stroke="#FFFFFF" stroke-opacity="0.15"/>
  <rect x="638" y="108" width="84" height="8" rx="4" fill="#FFFFFF" opacity="0.7"/>
  <rect x="638" y="124" width="132" height="6" rx="3" fill="#FFFFFF" opacity="0.3"/>
  <rect x="638" y="137" width="110" height="6" rx="3" fill="#FFFFFF" opacity="0.2"/>
  <path d="M618 126H584L550 162" stroke="#FFFFFF" stroke-width="2" stroke-linecap="round" opacity="0.4"/>

  <circle cx="136" cy="92" r="4" fill="#FFFFFF" opacity="0.3"/>
  <circle cx="184" cy="74" r="3" fill="#FFFFFF" opacity="0.2"/>
  <circle cx="808" cy="214" r="4" fill="#FFFFFF" opacity="0.3"/>
  <circle cx="776" cy="236" r="3" fill="#FFFFFF" opacity="0.2"/>
</svg>
