<svg id="svg" version="1.1" width="200" height="200" viewBox="60 40 200 200" xmlns="http://www.w3.org/2000/svg"><path d="M151.550 45.093 C 144.539 45.900,141.749 46.319,140.469 46.760 C 139.726 47.015,137.695 47.530,135.954 47.904 C 134.214 48.278,132.127 48.860,131.317 49.197 C 130.507 49.535,129.234 49.940,128.487 50.097 C 127.739 50.254,126.344 50.776,125.386 51.256 C 124.427 51.736,123.353 52.212,122.997 52.313 C 122.642 52.415,121.305 53.004,120.026 53.623 C 118.747 54.242,117.061 55.053,116.279 55.425 C 112.312 57.313,110.410 58.466,105.814 61.767 C 104.819 62.481,103.249 63.520,102.326 64.075 C 101.402 64.630,99.879 65.818,98.942 66.715 C 98.004 67.612,96.065 69.360,94.633 70.600 C 91.342 73.447,83.407 82.140,82.439 83.958 C 82.256 84.301,81.626 85.195,81.040 85.943 C 79.519 87.885,77.939 90.249,76.568 92.636 C 75.914 93.773,74.938 95.459,74.397 96.382 C 73.856 97.306,73.286 98.411,73.131 98.837 C 72.975 99.264,72.223 100.891,71.459 102.455 C 67.496 110.566,64.437 121.508,63.441 131.137 C 62.623 139.050,62.556 143.569,62.544 191.697 L 62.532 240.112 63.542 241.122 L 64.552 242.132 117.353 242.049 C 165.623 241.973,170.477 241.928,173.902 241.516 C 178.377 240.978,181.927 240.390,182.879 240.028 C 183.261 239.883,185.142 239.413,187.060 238.984 C 188.978 238.556,190.959 238.029,191.462 237.815 C 191.966 237.601,193.598 236.981,195.090 236.438 C 198.485 235.202,201.222 234.053,203.082 233.085 C 203.874 232.673,206.000 231.634,207.807 230.776 C 210.660 229.421,211.751 228.795,214.635 226.857 C 214.939 226.653,216.253 225.730,217.556 224.806 C 218.858 223.882,220.372 222.836,220.920 222.481 C 223.258 220.964,232.841 212.249,234.175 210.427 C 234.503 209.979,235.783 208.468,237.020 207.068 C 241.199 202.339,245.089 196.777,247.748 191.731 C 248.235 190.807,248.783 189.877,248.966 189.664 C 249.298 189.278,251.040 185.572,252.853 181.395 C 253.377 180.187,254.122 178.152,254.509 176.873 C 254.896 175.594,255.419 174.150,255.672 173.663 C 259.593 166.119,261.363 141.101,259.029 126.227 C 258.692 124.079,256.088 114.222,255.606 113.269 C 255.329 112.722,254.910 111.420,254.674 110.376 C 254.439 109.332,253.917 107.820,253.515 107.017 C 253.113 106.213,252.635 105.090,252.452 104.522 C 252.010 103.150,249.429 97.737,248.779 96.820 C 248.496 96.422,247.877 95.299,247.404 94.326 C 246.930 93.352,246.418 92.479,246.265 92.384 C 246.112 92.290,245.761 91.769,245.485 91.227 C 245.208 90.685,244.192 89.126,243.227 87.763 C 242.262 86.400,241.109 84.752,240.665 84.102 C 240.220 83.451,239.057 82.030,238.081 80.943 C 237.104 79.857,236.000 78.555,235.626 78.050 C 232.882 74.337,222.916 65.394,218.124 62.345 C 217.504 61.951,216.515 61.268,215.927 60.828 C 214.473 59.741,211.586 57.968,209.605 56.946 C 208.706 56.482,207.832 55.988,207.664 55.848 C 207.496 55.709,206.669 55.336,205.826 55.021 C 204.983 54.706,203.776 54.120,203.144 53.719 C 202.512 53.318,201.226 52.737,200.286 52.428 C 199.347 52.119,197.930 51.541,197.137 51.145 C 196.344 50.749,194.983 50.240,194.113 50.015 C 193.243 49.789,192.032 49.391,191.421 49.130 C 190.810 48.870,189.386 48.451,188.255 48.201 C 187.125 47.950,185.274 47.468,184.141 47.129 C 177.538 45.152,160.360 44.079,151.550 45.093 M191.935 88.415 C 201.947 93.186,199.846 107.536,188.803 109.812 C 182.635 111.084,175.190 104.007,176.039 97.680 C 177.064 90.035,185.283 85.245,191.935 88.415 M119.817 116.406 C 120.412 116.645,121.061 117.091,121.259 117.399 C 121.767 118.190,123.926 123.182,124.295 124.419 C 124.465 124.987,124.920 126.034,125.307 126.744 C 125.694 127.455,126.165 128.618,126.354 129.328 C 126.543 130.039,127.038 131.306,127.454 132.144 C 127.871 132.983,128.613 134.721,129.104 136.007 C 129.595 137.294,130.111 138.484,130.251 138.653 C 130.391 138.822,130.859 139.932,131.291 141.121 C 131.723 142.309,132.232 143.524,132.423 143.819 C 132.615 144.115,133.126 145.363,133.560 146.593 C 133.994 147.822,134.528 149.101,134.746 149.433 C 134.964 149.766,135.426 150.874,135.774 151.896 C 137.046 155.636,138.862 158.078,139.764 157.262 C 140.174 156.891,142.055 153.280,143.615 149.871 C 144.037 148.947,145.051 146.796,145.867 145.090 C 146.683 143.385,147.514 141.530,147.713 140.969 C 147.913 140.407,148.414 139.244,148.828 138.385 C 149.242 137.525,150.296 135.252,151.170 133.333 C 152.044 131.415,153.087 129.205,153.487 128.424 C 153.888 127.642,154.505 126.305,154.859 125.452 C 158.978 115.534,158.460 115.920,167.553 115.985 C 176.684 116.049,176.986 116.299,174.454 121.676 C 172.617 125.577,170.543 130.170,170.543 130.338 C 170.543 130.416,169.600 132.430,168.448 134.814 C 167.295 137.197,166.186 139.611,165.982 140.179 C 165.779 140.746,165.285 141.792,164.885 142.504 C 164.486 143.216,164.014 144.264,163.837 144.832 C 163.660 145.401,162.611 147.726,161.504 150.000 C 160.398 152.274,158.910 155.413,158.198 156.977 C 155.489 162.928,154.522 165.101,154.522 165.242 C 154.522 165.403,152.837 168.986,150.876 172.998 C 150.181 174.420,149.612 175.710,149.612 175.866 C 149.612 176.022,149.197 176.933,148.689 177.890 C 148.181 178.847,147.597 180.115,147.391 180.707 C 147.009 181.804,145.529 184.984,144.150 187.668 C 143.728 188.489,143.225 189.608,143.032 190.155 C 142.839 190.702,142.097 192.356,141.383 193.831 C 140.669 195.305,139.613 197.616,139.037 198.966 C 138.462 200.317,137.645 202.074,137.222 202.871 C 136.800 203.668,136.198 205.005,135.885 205.841 C 135.195 207.685,133.306 210.694,132.648 210.999 C 131.882 211.353,119.154 211.459,118.022 211.121 C 115.928 210.495,116.015 208.882,118.365 204.753 C 118.778 204.028,119.409 202.656,119.768 201.704 C 120.126 200.752,120.597 199.702,120.815 199.370 C 121.032 199.037,121.601 197.852,122.079 196.734 C 124.032 192.168,124.907 190.275,125.372 189.609 C 125.641 189.224,126.074 188.294,126.335 187.542 C 126.596 186.791,127.302 185.245,127.903 184.109 C 129.310 181.452,129.320 179.256,127.939 176.538 C 127.484 175.642,126.811 174.073,126.444 173.049 C 126.076 172.026,125.483 170.607,125.125 169.897 C 124.766 169.186,124.207 167.849,123.881 166.925 C 122.984 164.382,121.240 160.194,120.794 159.514 C 120.577 159.182,120.064 158.010,119.655 156.910 C 118.590 154.047,116.454 148.888,115.827 147.667 C 115.533 147.094,115.093 145.931,114.848 145.083 C 114.604 144.234,114.086 142.901,113.698 142.119 C 113.309 141.337,112.785 140.058,112.532 139.276 C 112.280 138.495,111.734 137.178,111.320 136.350 C 110.906 135.522,110.238 133.953,109.836 132.862 C 109.434 131.771,108.413 129.193,107.567 127.132 C 103.078 116.196,103.078 116.241,107.494 115.923 C 111.036 115.668,118.725 115.969,119.817 116.406 M195.062 116.641 C 196.108 117.588,196.121 118.013,196.123 151.236 C 196.124 187.792,196.290 185.027,194.068 185.503 C 190.017 186.372,179.440 185.722,178.721 184.559 C 178.637 184.422,178.556 169.323,178.542 151.005 L 178.518 117.700 179.496 116.849 L 180.474 115.998 187.497 116.074 C 193.973 116.144,194.563 116.188,195.062 116.641" stroke="none" fill="#FFFFFF" fill-rule="evenodd"/></svg>